<?xml version="1.0" encoding="UTF-8" standalone="no"?>
<!DOCTYPE svg PUBLIC "-//W3C//DTD SVG 1.1//EN" "http://www.w3.org/Graphics/SVG/1.1/DTD/svg11.dtd">
<svg width="100%" height="100%" viewBox="0 0 300 51" version="1.1" xmlns="http://www.w3.org/2000/svg" xmlns:xlink="http://www.w3.org/1999/xlink" xml:space="preserve" xmlns:serif="http://www.serif.com/" style="fill-rule:evenodd;clip-rule:evenodd;stroke-linejoin:round;stroke-miterlimit:2;">
    <g id="Logo---Extra-Wide" serif:id="Logo - Extra Wide" transform="matrix(1.06177,0,0,0.618271,-247.56,-310.285)">
        <path d="M499.667,564.307L484.646,564.307L489.306,549.67L499.691,549.67L500.089,549.67L500.089,549.661L500.044,549.661L502.421,542.196L504.844,549.661L504.843,549.661L504.846,549.67L504.847,549.673L515.705,583.06L505.755,583.06L499.667,564.307ZM490.163,535.034L487.221,525.973L468.776,583.06L451.364,583.06L429.807,551.75L421.232,564.177L421.232,583.06L413.011,583.06L413.011,501.859L421.232,501.859L421.232,545.594L451.364,501.859L457.725,501.859L459.23,508.975L436.19,542.46L460.561,577.701L485.136,501.904L489.313,501.907L497.659,527.572L495.287,535.024L490.163,535.034ZM274.337,516.048L249.209,516.048C247.663,516.048 246.474,516.997 245.377,518.89C244.28,520.783 243.599,523.062 243.599,525.73C243.599,528.385 244.144,530.644 245.236,532.507C246.336,534.383 247.66,535.32 249.209,535.32L266.485,535.32C270.31,535.32 273.57,537.649 276.269,542.306C278.967,546.962 280.317,552.59 280.317,559.19C280.317,565.79 278.967,571.417 276.269,576.074C273.57,580.73 270.31,583.06 266.485,583.06L235.396,583.06L233.157,575.954L235.374,568.871L266.485,568.871C268.031,568.871 269.352,567.922 270.449,566.029C271.545,564.136 272.095,561.857 272.095,559.19C272.095,556.535 271.55,554.275 270.458,552.412C269.359,550.536 268.034,549.6 266.485,549.6L249.209,549.6C245.385,549.6 242.124,547.27 239.426,542.614C236.728,537.957 235.378,532.329 235.378,525.73C235.378,519.13 236.728,513.502 239.426,508.846C242.124,504.189 245.385,501.859 249.209,501.859L274.246,501.859L276.519,509.122L274.337,516.048ZM325.208,535.32L325.208,501.859L333.43,501.859L333.43,583.06L325.208,583.06L325.208,549.6L294.601,549.6L294.601,583.06L286.379,583.06L286.379,501.859L294.601,501.859L294.601,535.32L325.208,535.32ZM341.533,501.859L349.754,501.859L349.754,583.06L341.533,583.06L341.533,501.859ZM404.908,525.73C404.908,529.92 404.319,533.797 403.147,537.363C402.521,539.268 401.782,540.967 400.929,542.46C401.782,543.953 402.521,545.651 403.147,547.556C404.319,551.122 404.908,554.999 404.908,559.19L404.908,583.06L396.686,583.06L396.686,559.19C396.686,556.535 396.141,554.275 395.049,552.412C393.95,550.536 392.626,549.6 391.077,549.6L366.079,549.6L366.079,583.06L357.857,583.06L357.857,535.32L391.077,535.32C392.626,535.32 393.95,534.383 395.049,532.507C396.141,530.644 396.686,528.385 396.686,525.73C396.686,523.062 396.137,520.783 395.04,518.89C393.943,516.997 392.622,516.048 391.077,516.048L357.857,516.048L357.857,501.859L391.077,501.859C394.901,501.859 398.162,504.189 400.86,508.846C403.558,513.502 404.908,519.13 404.908,525.73Z" style="fill:white;"/>
    </g>
    <g id="R" transform="matrix(0.055081,0,0,0.0552534,286.807,-3.20783)">
        <path d="M175.66,58.057C210.907,58.057 239.522,86.672 239.522,121.919C239.522,157.165 210.907,185.781 175.66,185.781C140.414,185.781 111.798,157.165 111.798,121.919C111.798,86.672 140.414,58.057 175.66,58.057ZM175.66,68.738C146.309,68.738 122.479,92.567 122.479,121.919C122.479,151.27 146.309,175.1 175.66,175.1C205.012,175.1 228.841,151.27 228.841,121.919C228.841,92.567 205.012,68.738 175.66,68.738ZM146.722,153.85L146.613,89.988L186.297,89.988C202.777,89.988 209.825,98.881 209.825,109.099C209.825,117.046 205.488,125.561 194.32,128.305L211.343,153.85L197.139,153.85L180.442,129.157L161.359,129.157C160.166,129.157 159.516,129.63 159.516,130.765L159.516,153.85L146.722,153.85ZM159.519,118.466L186.73,118.466C193.995,118.466 196.922,114.113 196.922,109.572C196.922,105.031 193.778,101.152 186.73,101.152L159.519,101.152L159.519,118.466Z" style="fill:white;"/>
    </g>
</svg>
