<?xml version="1.0" encoding="UTF-8" standalone="no"?>
<!DOCTYPE svg PUBLIC "-//W3C//DTD SVG 1.1//EN" "http://www.w3.org/Graphics/SVG/1.1/DTD/svg11.dtd">
<svg width="100%" height="100%" viewBox="0 0 300 51" version="1.1" xmlns="http://www.w3.org/2000/svg" xmlns:xlink="http://www.w3.org/1999/xlink" xml:space="preserve" xmlns:serif="http://www.serif.com/" style="fill-rule:evenodd;clip-rule:evenodd;stroke-linejoin:round;stroke-miterlimit:2;">
    <g id="Logo---Extra-Wide" serif:id="Logo - Extra Wide" transform="matrix(1.06132,0,0,0.615783,-247.58,-309.036)">
        <path d="M499.667,564.307L484.646,564.307L489.306,549.67L499.691,549.67L500.089,549.67L500.089,549.661L500.044,549.661L502.421,542.196L504.844,549.661L504.843,549.661L504.846,549.67L504.847,549.67L504.847,549.673L515.705,583.06L505.755,583.06L499.667,564.307ZM510.482,502.962L510.482,508.831L509.839,508.831L509.839,502.962L508.657,502.962L508.657,501.981L511.665,501.981L511.665,502.962L510.482,502.962ZM515.326,503.59L515.298,503.59L514.985,504.699L514.115,507.437L513.245,504.699L512.933,503.59L512.904,503.59L512.904,508.831L512.29,508.831L512.29,501.981L513.052,501.981L514.115,505.465L514.149,505.465L515.213,501.981L515.94,501.981L515.94,508.831L515.326,508.831L515.326,503.59ZM490.163,535.034L487.221,525.973L468.776,583.06L451.364,583.06L429.807,551.75L421.232,564.177L421.232,583.06L413.011,583.06L413.011,501.859L421.232,501.859L421.232,545.594L451.364,501.859L457.725,501.859L459.23,508.975L436.19,542.46L460.561,577.701L485.136,501.904L489.313,501.907L497.659,527.572L495.287,535.024L490.163,535.034ZM274.337,516.048L249.34,516.048C247.794,516.048 246.474,516.997 245.377,518.89C244.28,520.783 243.73,523.062 243.73,525.73C243.73,528.385 244.276,530.644 245.367,532.507C246.467,534.383 247.791,535.32 249.34,535.32L266.485,535.32C270.31,535.32 273.57,537.649 276.269,542.306C278.967,546.962 280.317,552.59 280.317,559.19C280.317,565.79 278.967,571.417 276.269,576.074C273.57,580.73 270.31,583.06 266.485,583.06L235.513,583.06L233.275,575.954L235.492,568.871L266.485,568.871C268.031,568.871 269.352,567.922 270.449,566.029C271.545,564.136 272.095,561.857 272.095,559.19C272.095,556.535 271.55,554.275 270.458,552.412C269.359,550.536 268.034,549.6 266.485,549.6L249.34,549.6C245.516,549.6 242.255,547.27 239.557,542.614C236.859,537.957 235.509,532.329 235.509,525.73C235.509,519.13 236.859,513.502 239.557,508.846C242.255,504.189 245.516,501.859 249.34,501.859L274.246,501.859L276.519,509.122L274.337,516.048ZM325.208,535.32L325.208,501.859L333.43,501.859L333.43,583.06L325.208,583.06L325.208,549.6L294.601,549.6L294.601,583.06L286.379,583.06L286.379,501.859L294.601,501.859L294.601,535.32L325.208,535.32ZM341.533,501.859L349.754,501.859L349.754,583.06L341.533,583.06L341.533,501.859ZM404.908,525.73C404.908,529.92 404.319,533.797 403.147,537.363C402.521,539.268 401.782,540.967 400.929,542.46C401.782,543.953 402.521,545.651 403.147,547.556C404.319,551.122 404.908,554.999 404.908,559.19L404.908,583.06L396.686,583.06L396.686,559.19C396.686,556.535 396.141,554.275 395.049,552.412C393.95,550.536 392.626,549.6 391.077,549.6L366.079,549.6L366.079,583.06L357.857,583.06L357.857,535.32L391.077,535.32C392.626,535.32 393.95,534.383 395.049,532.507C396.141,530.644 396.686,528.385 396.686,525.73C396.686,523.062 396.137,520.783 395.04,518.89C393.943,516.997 392.622,516.048 391.077,516.048L357.857,516.048L357.857,501.859L391.077,501.859C394.901,501.859 398.162,504.189 400.86,508.846C403.558,513.502 404.908,519.13 404.908,525.73Z" style="fill:white;"/>
    </g>
</svg>
